<svg viewBox="0 0 500 500" xmlns="http://www.w3.org/2000/svg"><g fill="none" fill-rule="evenodd"><rect fill="#f0f0f0" x="22" y="58" width="435" height="382" rx="31"/><rect fill="#4285f4" x="22" y="58" width="435" height="79.78" rx="31"/><g fill="#c5c5c5"><path d="m57 165h364v70h-364z"/><path d="m57 266h246v137h-246z"/><path d="m332 266h89v137h-89z"/></g><path d="m426.34 244.47c16.934 2.503 30.662 18.404 30.662 35.539v128.99c0 17.12-13.878 31.01-30.23 31.01l-192.09-204.41c-11.727-12.479-7.508-20.567 9.428-18.06l182.24 26.94" opacity=".283" fill="#4a4a4a"/><path d="m216.05 209c0-22.422 62.32-73.6 62.32-73.6 7.943-6.847 22.889-12.397 33.384-12.397h159.24c10.495 0 19 8.5 19 19v134c0 10.495-8.507 19-19 19h-159.24c-10.495 0-25.476-5.508-33.384-12.427 0 0-62.32-51.33-62.32-73.57" fill="#db4437"/><g fill="#e6e6e6"><circle cx="72.5" cy="98.5" r="17.5"/><circle cx="120.5" cy="98.5" r="17.5"/></g></g></svg>